<svg width="114" height="64" viewBox="0 0 114 64" fill="none" xmlns="http://www.w3.org/2000/svg">
<g clip-path="url(#clip0_249:4229)">
<path d="M8.93658 49.241V44.8312H12.1288V45.3463H9.52195V46.7044H11.9649V47.2195H9.52195V48.7259H12.2302V49.241H8.93658Z" fill="#1A1A18"/>
<path d="M15.0712 49.2488V48.7727C14.9636 48.9435 14.8136 49.0836 14.6358 49.1793C14.458 49.2751 14.2585 49.3232 14.0566 49.319C13.874 49.3197 13.6933 49.2825 13.5259 49.2098C13.3811 49.1535 13.2543 49.0591 13.159 48.9366C13.0753 48.815 13.0193 48.6764 12.9951 48.5307C12.9778 48.3621 12.9778 48.1921 12.9951 48.0234V46.0488H13.5415V47.8205C13.5236 48.01 13.5236 48.2007 13.5415 48.3902C13.5713 48.5249 13.6489 48.6441 13.76 48.7259C13.8798 48.813 14.0256 48.857 14.1737 48.8507C14.3332 48.852 14.49 48.8087 14.6263 48.7259C14.7626 48.6478 14.8696 48.5271 14.9307 48.3824C14.9995 48.1818 15.0286 47.9698 15.0166 47.758V46.0488H15.5629V49.2488H15.0712Z" fill="#1A1A18"/>
<path d="M16.3902 49.2488V46.0488H16.8741V46.5327C16.9557 46.3573 17.0758 46.2026 17.2254 46.08C17.326 46.0093 17.4458 45.9712 17.5688 45.9707C17.7692 45.9771 17.9638 46.0393 18.1307 46.1502L17.9434 46.6498C17.8237 46.5755 17.6862 46.5351 17.5454 46.5327C17.4296 46.5332 17.3173 46.5716 17.2254 46.6419C17.1279 46.7167 17.0568 46.8206 17.0224 46.9385C16.9574 47.1428 16.9257 47.3563 16.9288 47.5707V49.2488H16.3902Z" fill="#1A1A18"/>
<path d="M18.2556 47.6098C18.2372 47.3746 18.2703 47.1383 18.3525 46.9173C18.4347 46.6962 18.5641 46.4957 18.7317 46.3298C19.0276 46.0836 19.404 45.9553 19.7886 45.9697C20.1732 45.9841 20.539 46.1402 20.8156 46.4078C20.9653 46.5686 21.0811 46.7579 21.1562 46.9644C21.2313 47.1709 21.2641 47.3903 21.2527 47.6098C21.266 47.9392 21.2047 48.2674 21.0732 48.5698C20.953 48.8041 20.7654 48.9971 20.5346 49.1239C20.2941 49.2513 20.0263 49.3182 19.7541 49.319C19.5536 49.3255 19.3538 49.2907 19.1672 49.2169C18.9806 49.143 18.8111 49.0317 18.6693 48.8898C18.3741 48.5432 18.2257 48.0952 18.2556 47.641V47.6098ZM18.8176 47.6098C18.7904 47.9389 18.8848 48.2665 19.0829 48.5307C19.1637 48.6304 19.2661 48.7104 19.3824 48.7645C19.4987 48.8186 19.6259 48.8454 19.7541 48.8429C19.8834 48.8443 20.0113 48.817 20.1287 48.7631C20.2461 48.7091 20.3501 48.6297 20.4332 48.5307C20.6286 48.2592 20.7225 47.9278 20.6985 47.5941C20.7213 47.2715 20.624 46.9518 20.4254 46.6966C20.3435 46.5988 20.2406 46.5206 20.1244 46.4679C20.0082 46.4152 19.8817 46.3894 19.7541 46.3922C19.6268 46.3905 19.5006 46.4168 19.3846 46.4695C19.2685 46.5221 19.1655 46.5996 19.0829 46.6966C18.886 46.9584 18.7916 47.2832 18.8176 47.6098Z" fill="#1A1A18"/>
<path d="M21.8927 50.4741V46.0488H22.3844V46.4624C22.4866 46.3107 22.6229 46.1851 22.7824 46.0956C22.9445 46.006 23.1281 45.9628 23.3132 45.9707C23.5683 45.9622 23.8199 46.0326 24.0336 46.1722C24.2473 46.3119 24.4127 46.5141 24.5073 46.7512C24.6205 47.0231 24.6763 47.3153 24.6712 47.6098C24.6743 47.9156 24.6132 48.2188 24.4917 48.4995C24.3848 48.745 24.2085 48.9539 23.9844 49.1005C23.7726 49.2371 23.5262 49.3103 23.2741 49.3112C23.1034 49.3072 22.9366 49.2588 22.7902 49.1707C22.6517 49.1007 22.5293 49.0023 22.4312 48.882V50.4429L21.8927 50.4741ZM22.3844 47.6644C22.3554 47.9889 22.4441 48.313 22.6341 48.5776C22.706 48.6685 22.7972 48.7423 22.9012 48.7936C23.0051 48.8449 23.1192 48.8724 23.2351 48.8741C23.3563 48.8741 23.4758 48.8459 23.5842 48.7917C23.6925 48.7376 23.7868 48.6589 23.8595 48.562C24.0257 48.2806 24.1133 47.9599 24.1133 47.6332C24.1133 47.3064 24.0257 46.9857 23.8595 46.7044C23.7864 46.6132 23.6937 46.5397 23.5883 46.4891C23.483 46.4386 23.3676 46.4123 23.2507 46.4123C23.1339 46.4123 23.0185 46.4386 22.9131 46.4891C22.8078 46.5397 22.7151 46.6132 22.6419 46.7044C22.4458 46.9841 22.3546 47.3241 22.3844 47.6644Z" fill="#1A1A18"/>
<path d="M27.5122 48.2107L28.0741 48.281C28.0076 48.591 27.8334 48.8675 27.5824 49.0615C27.3161 49.25 26.9953 49.346 26.6693 49.3346C26.4629 49.3444 26.2569 49.3106 26.0646 49.2353C25.8722 49.1599 25.698 49.0449 25.5532 48.8976C25.2618 48.5643 25.1132 48.1297 25.1395 47.6878C25.1105 47.23 25.2617 46.779 25.561 46.4312C25.6979 46.2839 25.865 46.1679 26.0509 46.0911C26.2368 46.0143 26.4371 45.9786 26.638 45.9863C26.8336 45.9796 27.0282 46.0151 27.2088 46.0905C27.3893 46.166 27.5513 46.2795 27.6839 46.4234C27.966 46.7528 28.1137 47.1764 28.0976 47.6098V47.7502H25.7015C25.7107 48.0376 25.8181 48.313 26.0058 48.5307C26.0898 48.6224 26.1925 48.695 26.307 48.7435C26.4214 48.7919 26.545 48.8152 26.6693 48.8117C26.8508 48.8162 27.029 48.7614 27.1766 48.6556C27.3366 48.5238 27.4535 48.3471 27.5122 48.1483V48.2107ZM25.7561 47.3366H27.5434C27.5367 47.1206 27.4661 46.9115 27.3405 46.7356C27.2609 46.634 27.1589 46.5523 27.0425 46.4968C26.926 46.4413 26.7983 46.4135 26.6693 46.4156C26.5526 46.4133 26.4367 46.4343 26.3281 46.4771C26.2196 46.52 26.1207 46.584 26.0371 46.6654C25.861 46.845 25.7605 47.0851 25.7561 47.3366Z" fill="#1A1A18"/>
<path d="M30.8449 48.8507C30.6732 49.0011 30.4781 49.1224 30.2673 49.2098C30.0752 49.282 29.8716 49.319 29.6663 49.319C29.3835 49.331 29.106 49.2395 28.8858 49.0615C28.7937 48.9778 28.7209 48.8752 28.6724 48.7607C28.6239 48.6461 28.6009 48.5224 28.6049 48.398C28.5991 48.2474 28.637 48.0983 28.7141 47.9688C28.7814 47.846 28.8746 47.7395 28.9873 47.6566C29.1075 47.579 29.2392 47.5211 29.3776 47.4849C29.5371 47.4473 29.6987 47.4187 29.8615 47.399C30.1903 47.3748 30.5151 47.3119 30.8293 47.2117C30.8293 47.1415 30.8293 47.0946 30.8293 47.0712C30.8369 46.9866 30.827 46.9014 30.8001 46.8208C30.7733 46.7402 30.73 46.666 30.6732 46.6029C30.4961 46.4938 30.2939 46.4322 30.0861 46.424C29.8783 46.4158 29.6719 46.4613 29.4868 46.5561C29.344 46.6777 29.2498 46.8468 29.2215 47.0322L28.6907 46.9541C28.7257 46.7564 28.8058 46.5695 28.9249 46.4078C29.051 46.2556 29.2194 46.1443 29.4088 46.0878C29.6415 46.0047 29.8876 45.9651 30.1346 45.9707C30.3602 45.962 30.5854 45.9964 30.798 46.0722C30.9438 46.1147 31.074 46.1988 31.1727 46.3141C31.2612 46.4192 31.3204 46.5457 31.3444 46.681C31.3562 46.8473 31.3562 47.0142 31.3444 47.1805V47.9063C31.3365 48.2243 31.3495 48.5423 31.3834 48.8585C31.4087 48.9943 31.4534 49.1257 31.5161 49.2488H30.9541C30.8958 49.1231 30.8588 48.9886 30.8449 48.8507ZM30.798 47.6098C30.5126 47.7104 30.2168 47.7785 29.9161 47.8127C29.7536 47.8301 29.5938 47.8668 29.44 47.922C29.3522 47.9574 29.2782 48.0204 29.2293 48.1015C29.1758 48.1735 29.1483 48.2616 29.1512 48.3512C29.1501 48.4206 29.1643 48.4894 29.1926 48.5528C29.2209 48.6161 29.2627 48.6725 29.3151 48.718C29.4548 48.8205 29.6262 48.8703 29.799 48.8585C29.9922 48.8637 30.1833 48.818 30.3532 48.7259C30.508 48.6402 30.6332 48.5096 30.7122 48.3512C30.7769 48.1766 30.8061 47.9909 30.798 47.8049V47.6098Z" fill="#1A1A18"/>
<path d="M32.1873 49.2488V46.0488H32.679V46.5015C32.7868 46.3319 32.9373 46.1936 33.1154 46.1005C33.2935 46.0073 33.4929 45.9626 33.6937 45.9707C33.8754 45.9705 34.0555 46.0049 34.2244 46.0722C34.3722 46.1267 34.5001 46.2246 34.5912 46.3532C34.6729 46.4739 34.7311 46.6089 34.7629 46.7512C34.7746 46.9253 34.7746 47.1 34.7629 47.2741V49.2488H34.2244V47.2976C34.2351 47.1404 34.2219 46.9825 34.1854 46.8293C34.1414 46.7182 34.0618 46.6248 33.959 46.5639C33.8401 46.4869 33.7025 46.4438 33.561 46.439C33.3417 46.4367 33.1298 46.5176 32.9678 46.6654C32.869 46.7787 32.7956 46.9118 32.7525 47.0559C32.7094 47.1999 32.6977 47.3515 32.718 47.5005V49.2488H32.1873Z" fill="#1A1A18"/>
<path d="M40.3044 44.8234H40.8898V47.3834C40.9016 47.7412 40.8487 48.0981 40.7337 48.4371C40.6325 48.7056 40.4424 48.9315 40.1951 49.0771C39.8808 49.2519 39.5241 49.3356 39.1649 49.319C38.812 49.3324 38.4612 49.2601 38.1424 49.1083C37.889 48.9708 37.6906 48.7503 37.5805 48.4839C37.4571 48.1306 37.4015 47.7573 37.4166 47.3834V44.8234H38.0019V47.3756C37.9876 47.6629 38.0219 47.9505 38.1034 48.2263C38.1737 48.4048 38.3032 48.5536 38.4702 48.6478C38.6682 48.7489 38.888 48.7998 39.1102 48.7961C39.2758 48.8113 39.4428 48.7929 39.601 48.7419C39.7593 48.6909 39.9056 48.6085 40.0312 48.4995C40.2507 48.1683 40.3474 47.7706 40.3044 47.3756V44.8234Z" fill="#1A1A18"/>
<path d="M41.7951 49.2488V46.0488H42.279V46.5015C42.3881 46.3313 42.5399 46.1927 42.7194 46.0995C42.8988 46.0064 43.0995 45.962 43.3015 45.9707C43.4831 45.9719 43.6629 46.0063 43.8322 46.0722C43.9772 46.128 44.1022 46.2259 44.1912 46.3532C44.2793 46.4703 44.3382 46.6068 44.3629 46.7512C44.3797 46.9251 44.3797 47.1002 44.3629 47.2741V49.2488H43.8166V47.2976C43.8338 47.1408 43.8232 46.9823 43.7854 46.8293C43.7442 46.7165 43.6639 46.6223 43.559 46.5639C43.4462 46.4956 43.3163 46.4604 43.1844 46.4624C42.9627 46.4597 42.7482 46.5405 42.5834 46.6888C42.4863 46.8031 42.414 46.9364 42.371 47.0802C42.328 47.2239 42.3153 47.375 42.3337 47.5239V49.2488H41.7951Z" fill="#1A1A18"/>
<path d="M45.2683 45.4556V44.8234H45.8068V45.4556H45.2683ZM45.2683 49.2488V46.0488H45.8068V49.2488H45.2683Z" fill="#1A1A18"/>
<path d="M46.3922 47.6098C46.3721 47.3678 46.4065 47.1243 46.493 46.8974C46.5794 46.6705 46.7157 46.4658 46.8917 46.2985C47.1876 46.0523 47.564 45.9241 47.9486 45.9385C48.3332 45.9529 48.699 46.1089 48.9756 46.3766C49.1251 46.543 49.2389 46.7383 49.31 46.9504C49.3811 47.1625 49.4081 47.3869 49.3893 47.6098C49.4038 47.9418 49.3424 48.2728 49.2098 48.5776C49.0896 48.8119 48.902 49.0049 48.6712 49.1317C48.4307 49.2591 48.1629 49.326 47.8907 49.3268C47.6935 49.3291 47.4979 49.2915 47.3155 49.2164C47.1331 49.1413 46.9677 49.0302 46.8293 48.8898C46.5341 48.5432 46.3857 48.0952 46.4156 47.641L46.3922 47.6098ZM46.9541 47.6098C46.927 47.9389 47.0214 48.2665 47.2195 48.5307C47.3003 48.6304 47.4027 48.7104 47.519 48.7645C47.6353 48.8186 47.7625 48.8454 47.8907 48.8429C48.0199 48.8443 48.1479 48.817 48.2653 48.7631C48.3827 48.7091 48.4867 48.6297 48.5698 48.5307C48.7651 48.2592 48.8591 47.9278 48.8351 47.5941C48.8579 47.2715 48.7606 46.9518 48.5619 46.6966C48.48 46.5988 48.3772 46.5206 48.261 46.4679C48.1448 46.4152 48.0183 46.3894 47.8907 46.3922C47.7633 46.3905 47.6372 46.4168 47.5211 46.4695C47.4051 46.5221 47.3021 46.5996 47.2195 46.6966C47.0226 46.9584 46.9282 47.2832 46.9541 47.6098Z" fill="#1A1A18"/>
<path d="M50.0293 49.2488V46.0488H50.5132V46.5015C50.6202 46.3348 50.7683 46.1984 50.9433 46.1054C51.1182 46.0125 51.3141 45.9661 51.5122 45.9707C51.6939 45.9712 51.8739 46.0056 52.0429 46.0722C52.1879 46.128 52.3129 46.2259 52.4019 46.3532C52.49 46.4703 52.5489 46.6068 52.5737 46.7512C52.5904 46.9251 52.5904 47.1002 52.5737 47.2741V49.2488H52.0273V47.2976C52.0372 47.1312 52.016 46.9645 51.9649 46.8059C51.924 46.6953 51.847 46.6018 51.7463 46.5405C51.6297 46.4744 51.498 46.4394 51.3639 46.439C51.1422 46.4363 50.9277 46.5171 50.7629 46.6654C50.6658 46.7797 50.5935 46.913 50.5505 47.0567C50.5075 47.2005 50.4948 47.3516 50.5132 47.5005V49.2488H50.0293Z" fill="#1A1A18"/>
<path d="M33.241 55.5473V51.1298H35.2C35.5037 51.1177 35.8072 51.1573 36.0976 51.2468C36.3043 51.3278 36.4776 51.4763 36.5893 51.6683C36.7085 51.8689 36.7705 52.0983 36.7688 52.3317C36.7719 52.4754 36.7466 52.6183 36.6944 52.7523C36.6421 52.8862 36.564 53.0085 36.4644 53.1122C36.2104 53.3558 35.8789 53.5022 35.5278 53.5259C35.6537 53.5835 35.7717 53.6569 35.879 53.7444C36.0654 53.9203 36.2281 54.1197 36.3629 54.3376L37.1434 55.5395H36.4098L35.8088 54.6341C35.6794 54.4238 35.5387 54.2206 35.3873 54.0254C35.305 53.9112 35.2049 53.8111 35.0907 53.7288C35.0093 53.6755 34.9196 53.636 34.8254 53.6117C34.7164 53.6002 34.6065 53.6002 34.4976 53.6117H33.8263V55.5785L33.241 55.5473ZM33.8263 53.0732H35.1219C35.333 53.082 35.544 53.0556 35.7463 52.9951C35.8862 52.9456 36.0066 52.8526 36.0898 52.7298C36.164 52.6101 36.2044 52.4725 36.2068 52.3317C36.2092 52.2345 36.1901 52.138 36.151 52.049C36.1119 51.9599 36.0537 51.8806 35.9805 51.8166C35.773 51.6655 35.5183 51.5936 35.2624 51.6137H33.8263V53.0732Z" fill="#1A1A18"/>
<path d="M39.8049 54.5171L40.3668 54.5795C40.3003 54.8896 40.1261 55.1661 39.8751 55.36C39.567 55.5628 39.2 55.6568 38.8323 55.6271C38.4646 55.5974 38.1174 55.4457 37.8459 55.1961C37.7044 55.0272 37.5978 54.8319 37.5322 54.6216C37.4666 54.4113 37.4432 54.1901 37.4634 53.9707C37.4339 53.5142 37.5821 53.0639 37.8771 52.7141C38.0134 52.5741 38.1777 52.4642 38.3592 52.3916C38.5407 52.319 38.7354 52.2853 38.9307 52.2927C39.1262 52.2859 39.3209 52.3214 39.5014 52.3969C39.6819 52.4723 39.844 52.5859 39.9766 52.7298C40.2658 53.0731 40.4113 53.5149 40.3824 53.9629V54.1034H37.9941C38.0033 54.3907 38.1108 54.6662 38.2985 54.8839C38.3825 54.9756 38.4852 55.0481 38.5996 55.0966C38.7141 55.1451 38.8377 55.1684 38.9619 55.1649C39.1435 55.1694 39.3216 55.1146 39.4693 55.0088C39.6277 54.8788 39.7444 54.7051 39.8049 54.5093V54.5171ZM38.0254 53.6351H39.8049C39.7981 53.4191 39.7275 53.21 39.6019 53.0341C39.5224 52.9326 39.4204 52.8508 39.3039 52.7953C39.1875 52.7398 39.0597 52.712 38.9307 52.7141C38.8141 52.7119 38.6981 52.7328 38.5896 52.7757C38.4811 52.8185 38.3821 52.8825 38.2985 52.9639C38.128 53.1464 38.0307 53.3854 38.0254 53.6351Z" fill="#1A1A18"/>
<path d="M40.9522 55.8127L41.4751 55.8907C41.4806 55.959 41.5001 56.0254 41.5323 56.0858C41.5645 56.1462 41.6088 56.1994 41.6624 56.2419C41.8235 56.3495 42.0154 56.4016 42.2088 56.3902C42.4147 56.4045 42.6198 56.3525 42.7941 56.2419C42.9291 56.1354 43.0252 55.9872 43.0673 55.8205C43.0953 55.5898 43.0953 55.3565 43.0673 55.1259C42.9623 55.2589 42.8282 55.366 42.6753 55.4391C42.5224 55.5121 42.3548 55.5492 42.1854 55.5473C41.9893 55.5556 41.794 55.5167 41.6161 55.4339C41.4382 55.351 41.2828 55.2267 41.1629 55.0712C40.9183 54.7397 40.7919 54.3357 40.8039 53.9239C40.8122 53.6294 40.8813 53.3397 41.0068 53.0732C41.105 52.8293 41.2735 52.6202 41.4907 52.4722C41.7113 52.339 41.9673 52.2764 42.2244 52.2927C42.4058 52.2899 42.5853 52.3302 42.7481 52.4103C42.9109 52.4903 43.0524 52.6078 43.161 52.7532V52.3707H43.6605V55.1337C43.6838 55.4939 43.6333 55.8551 43.5122 56.1951C43.4039 56.4039 43.2353 56.5752 43.0283 56.6868C42.786 56.8076 42.5185 56.8692 42.2478 56.8663C41.9188 56.8806 41.5937 56.7905 41.319 56.6088C41.2008 56.5185 41.1078 56.3992 41.049 56.2625C40.9902 56.1258 40.9676 55.9763 40.9834 55.8283L40.9522 55.8127ZM41.3658 53.8537C41.3398 54.1803 41.4281 54.5059 41.6156 54.7746C41.6933 54.8653 41.7896 54.9381 41.8981 54.988C42.0065 55.0379 42.1245 55.0637 42.2439 55.0637C42.3633 55.0637 42.4812 55.0379 42.5897 54.988C42.6982 54.9381 42.7945 54.8653 42.8722 54.7746C43.0587 54.5143 43.1471 54.1963 43.1219 53.8771C43.1572 53.577 43.0883 53.2739 42.9268 53.0185C42.8517 52.9234 42.7555 52.8471 42.6457 52.7956C42.536 52.7441 42.4158 52.7189 42.2946 52.722C42.1774 52.7225 42.0618 52.7494 41.9564 52.8008C41.851 52.8521 41.7585 52.9266 41.6858 53.0185C41.4822 53.2494 41.3686 53.5459 41.3658 53.8537Z" fill="#1A1A18"/>
<path d="M44.4878 51.7541V51.1298H45.0341V51.7541H44.4878ZM44.4878 55.5473V52.3473H45.0341V55.5473H44.4878Z" fill="#1A1A18"/>
<path d="M45.6507 53.9473C45.6307 53.7048 45.6643 53.4609 45.7493 53.2329C45.8343 53.0049 45.9685 52.7985 46.1424 52.6283C46.4266 52.3986 46.7842 52.2794 47.1493 52.2927C47.3495 52.2855 47.5489 52.3207 47.7346 52.396C47.9202 52.4713 48.0878 52.5851 48.2263 52.7298C48.3723 52.8909 48.4847 53.0795 48.5571 53.2845C48.6294 53.4895 48.6603 53.7068 48.6478 53.9239C48.6643 54.2569 48.6 54.5889 48.4605 54.8917C48.3428 55.1278 48.1546 55.3214 47.9219 55.4459C47.6833 55.578 47.4142 55.6452 47.1415 55.641C46.9378 55.6459 46.7354 55.6082 46.5472 55.5303C46.359 55.4523 46.1892 55.3358 46.0488 55.1883C45.7548 54.8442 45.6064 54.399 45.6351 53.9473H45.6507ZM46.2049 53.9473C46.1812 54.2749 46.2784 54.5998 46.478 54.8605C46.5588 54.9602 46.6612 55.0401 46.7775 55.0942C46.8939 55.1483 47.021 55.1752 47.1493 55.1727C47.2776 55.1757 47.4049 55.1492 47.5214 55.095C47.6378 55.0409 47.7401 54.9606 47.8205 54.8605C48.0224 54.5919 48.1195 54.2589 48.0937 53.9239C48.1149 53.6014 48.0178 53.2823 47.8205 53.0263C47.737 52.9304 47.6338 52.8534 47.518 52.8007C47.4022 52.7479 47.2765 52.7206 47.1493 52.7206C47.022 52.7206 46.8963 52.7479 46.7805 52.8007C46.6647 52.8534 46.5616 52.9304 46.478 53.0263C46.2772 53.2895 46.18 53.6172 46.2049 53.9473Z" fill="#1A1A18"/>
<path d="M49.2878 55.5473V52.3473H49.7717V52.8C49.8836 52.6341 50.0367 52.5002 50.2159 52.4112C50.3951 52.3223 50.5944 52.2815 50.7941 52.2927C50.9766 52.2926 51.1572 52.3298 51.3249 52.4019C51.4705 52.4526 51.5963 52.5482 51.6839 52.6751C51.772 52.7922 51.8309 52.9287 51.8556 53.0732C51.8683 53.2472 51.8683 53.422 51.8556 53.5961V55.5707H51.3093V53.6195C51.3365 53.4372 51.3258 53.2512 51.278 53.0732C51.2369 52.9604 51.1566 52.8662 51.0517 52.8078C50.9388 52.7395 50.809 52.7043 50.6771 52.7063C50.4554 52.7036 50.2409 52.7844 50.0761 52.9327C49.9798 53.0475 49.908 53.1809 49.865 53.3245C49.8221 53.4681 49.8089 53.6189 49.8263 53.7678V55.5161L49.2878 55.5473Z" fill="#1A1A18"/>
<path d="M54.8058 55.1493C54.6342 55.2996 54.4391 55.4209 54.2283 55.5083C54.0361 55.5805 53.8326 55.6175 53.6273 55.6176C53.3445 55.6296 53.067 55.538 52.8468 55.36C52.7553 55.2776 52.6828 55.1763 52.6343 55.0631C52.5858 54.9499 52.5624 54.8275 52.5658 54.7044C52.5611 54.5514 52.599 54.4001 52.6751 54.2673C52.7426 54.147 52.8359 54.043 52.9483 53.9629C53.0664 53.8798 53.1986 53.819 53.3385 53.7834C53.4981 53.7459 53.6597 53.7172 53.8224 53.6976C54.1513 53.6733 54.4761 53.6105 54.7902 53.5102C54.7902 53.44 54.7902 53.3932 54.7902 53.3698C54.7979 53.2852 54.788 53.1999 54.7611 53.1193C54.7342 53.0387 54.691 52.9646 54.6341 52.9015C54.4571 52.7923 54.2549 52.7307 54.0471 52.7225C53.8393 52.7143 53.6329 52.7598 53.4478 52.8546C53.305 52.9763 53.2108 53.1453 53.1824 53.3307L52.6517 53.2527C52.6866 53.055 52.7668 52.868 52.8858 52.7063C53.0119 52.5542 53.1803 52.4428 53.3697 52.3863C53.6025 52.3033 53.8485 52.2636 54.0956 52.2693C54.3212 52.2605 54.5464 52.2949 54.759 52.3707C54.9048 52.4132 55.035 52.4973 55.1337 52.6127C55.2222 52.7177 55.2814 52.8443 55.3054 52.9795C55.3172 53.1458 55.3172 53.3127 55.3054 53.479V54.2049C55.2845 54.5219 55.2845 54.84 55.3054 55.1571C55.3307 55.2928 55.3754 55.4242 55.438 55.5473H54.8761C54.8177 55.4217 54.7808 55.2871 54.7668 55.1493H54.8058ZM54.759 53.9395C54.4736 54.0401 54.1778 54.1082 53.8771 54.1424C53.7146 54.1599 53.5548 54.1965 53.401 54.2517C53.3131 54.2871 53.2392 54.3501 53.1902 54.4312C53.1357 54.5057 53.1082 54.5965 53.1122 54.6888C53.1112 54.757 53.1254 54.8246 53.1537 54.8867C53.1821 54.9488 53.2239 55.0038 53.2761 55.0478C53.4151 55.1515 53.587 55.2015 53.76 55.1883C53.9532 55.1935 54.1443 55.1477 54.3141 55.0556C54.469 54.9699 54.5942 54.8393 54.6732 54.681C54.7379 54.5064 54.7671 54.3206 54.759 54.1346V53.9395Z" fill="#1A1A18"/>
<path d="M56.679 51.1298H56.1405V55.5473H56.679V51.1298Z" fill="#1A1A18"/>
<path d="M5.15902 61.8458V57.4283H6.67317C6.93486 57.4192 7.19674 57.4402 7.45366 57.4907C7.69204 57.5398 7.91459 57.647 8.10146 57.8029C8.33977 58.014 8.51984 58.2827 8.62439 58.5834C8.74574 58.9211 8.80394 59.2783 8.7961 59.6371C8.80013 59.9377 8.76069 60.2374 8.67902 60.5268C8.61828 60.7558 8.5179 60.9724 8.38244 61.1668C8.27159 61.3245 8.13427 61.4618 7.97658 61.5727C7.81707 61.6768 7.63984 61.7509 7.45366 61.7912C7.22051 61.8433 6.98232 61.8695 6.74341 61.8693L5.15902 61.8458ZM5.73658 61.3229H6.68097C6.91296 61.3296 7.14459 61.3006 7.3678 61.2371C7.51633 61.1937 7.65265 61.1162 7.76585 61.0107C7.915 60.851 8.0246 60.6585 8.08585 60.4488C8.17 60.1733 8.20953 59.8861 8.20293 59.598C8.22256 59.2304 8.14446 58.8642 7.97658 58.5366C7.85413 58.3118 7.65864 58.1356 7.42244 58.0371C7.17 57.9593 6.90563 57.9275 6.64195 57.9434H5.73658V61.3229Z" fill="#1A1A18"/>
<path d="M11.7073 60.8156L12.2693 60.878C12.2027 61.1881 12.0285 61.4646 11.7776 61.6585C11.5118 61.8481 11.1906 61.9442 10.8644 61.9317C10.6588 61.9411 10.4535 61.9078 10.2614 61.8339C10.0693 61.76 9.89462 61.6472 9.74829 61.5024C9.46375 61.1576 9.32636 60.7146 9.36585 60.2693C9.33848 59.8117 9.48955 59.3612 9.78732 59.0127C9.92051 58.8607 10.0851 58.7394 10.2697 58.6573C10.4543 58.5751 10.6545 58.5339 10.8566 58.5366C11.0521 58.5298 11.2468 58.5654 11.4273 58.6408C11.6078 58.7162 11.7699 58.8298 11.9024 58.9737C12.1917 59.317 12.3371 59.7588 12.3083 60.2068V60.3473H9.92C9.9292 60.6346 10.0366 60.9101 10.2244 61.1278C10.3083 61.2195 10.411 61.292 10.5255 61.3405C10.64 61.389 10.7635 61.4123 10.8878 61.4088C11.0694 61.4133 11.2475 61.3585 11.3951 61.2527C11.5535 61.1227 11.6702 60.949 11.7307 60.7532L11.7073 60.8156ZM9.9278 59.9337H11.7073C11.7006 59.7177 11.63 59.5085 11.5044 59.3327C11.4248 59.2311 11.3228 59.1494 11.2064 59.0939C11.0899 59.0383 10.9622 59.0105 10.8332 59.0127C10.7165 59.0104 10.6006 59.0313 10.492 59.0742C10.3835 59.1171 10.2846 59.1811 10.201 59.2624C10.0419 59.4502 9.95355 59.6876 9.95122 59.9337H9.9278Z" fill="#1A1A18"/>
<path d="M13.8615 61.8458L12.6439 58.6459H13.2215L13.9083 60.558C13.9785 60.7688 14.0488 60.9795 14.1112 61.2058C14.158 61.0341 14.2283 60.8312 14.3141 60.5971L15.0244 58.6459H15.6098L14.4 61.8458H13.8615Z" fill="#1A1A18"/>
<path d="M18.2478 60.8156L18.8098 60.878C18.7432 61.1881 18.569 61.4646 18.318 61.6585C18.0523 61.8481 17.7311 61.9442 17.4049 61.9317C17.1993 61.9411 16.994 61.9078 16.8019 61.8339C16.6098 61.76 16.4351 61.6472 16.2888 61.5024C15.9997 61.1651 15.8541 60.7281 15.8829 60.2849C15.8534 59.8283 16.0016 59.378 16.2966 59.0283C16.4292 58.8725 16.5943 58.7477 16.7805 58.6627C16.9666 58.5777 17.1691 58.5347 17.3737 58.5366C17.5692 58.5298 17.7639 58.5654 17.9444 58.6408C18.1249 58.7162 18.287 58.8298 18.4195 58.9737C18.7116 59.3158 18.8598 59.7578 18.8332 60.2068C18.8332 60.2068 18.8332 60.2849 18.8332 60.3473H16.4371C16.4463 60.6346 16.5537 60.9101 16.7415 61.1278C16.8926 61.2826 17.0931 61.3798 17.3082 61.4026C17.5234 61.4254 17.7398 61.3724 17.92 61.2527C18.0759 61.1219 18.1898 60.9482 18.2478 60.7532V60.8156ZM16.4683 59.9337H18.2556C18.2489 59.7177 18.1783 59.5085 18.0527 59.3327C17.9731 59.2311 17.8711 59.1494 17.7547 59.0939C17.6382 59.0383 17.5105 59.0105 17.3815 59.0127C17.2648 59.0104 17.1489 59.0313 17.0403 59.0742C16.9318 59.1171 16.8329 59.1811 16.7493 59.2624C16.5789 59.4457 16.4793 59.6837 16.4683 59.9337Z" fill="#1A1A18"/>
<path d="M20.0195 57.4283H19.481V61.8458H20.0195V57.4283Z" fill="#1A1A18"/>
<path d="M20.6595 60.2459C20.6388 60.0026 20.6729 59.7579 20.7593 59.5296C20.8458 59.3013 20.9824 59.0953 21.159 58.9268C21.4345 58.6761 21.7934 58.537 22.1659 58.5366C22.3659 58.5308 22.5649 58.5667 22.7503 58.642C22.9357 58.7172 23.1035 58.8301 23.2429 58.9737C23.3875 59.1354 23.4985 59.3243 23.5695 59.5293C23.6405 59.7342 23.6701 59.9513 23.6566 60.1678C23.6752 60.5001 23.6136 60.8321 23.4771 61.1356C23.3569 61.3699 23.1693 61.5629 22.9385 61.6898C22.6999 61.8219 22.4308 61.8891 22.158 61.8849C21.956 61.8938 21.7543 61.8603 21.5661 61.7863C21.3779 61.7124 21.2073 61.5997 21.0654 61.4556C20.7714 61.1115 20.623 60.6663 20.6517 60.2146L20.6595 60.2459ZM21.2215 60.2459C21.1972 60.5747 21.2913 60.9013 21.4868 61.1668C21.5703 61.2648 21.6745 61.343 21.792 61.3956C21.9095 61.4483 22.0372 61.4741 22.1659 61.4712C22.2941 61.4737 22.4212 61.4468 22.5376 61.3927C22.6539 61.3386 22.7563 61.2587 22.8371 61.159C23.0362 60.8894 23.1306 60.5565 23.1024 60.2224C23.1295 59.8969 23.0318 59.5733 22.8293 59.3171C22.7482 59.2203 22.6466 59.1428 22.5319 59.0901C22.4171 59.0375 22.2921 59.011 22.1659 59.0127C22.0372 59.0098 21.9095 59.0356 21.792 59.0883C21.6745 59.1409 21.5703 59.2191 21.4868 59.3171C21.2869 59.5834 21.1924 59.9141 21.2215 60.2459Z" fill="#1A1A18"/>
<path d="M24.2966 63.0712V58.6459H24.7883V59.0595C24.8905 58.9078 25.0268 58.7822 25.1863 58.6927C25.3586 58.5901 25.5556 58.5361 25.7561 58.5366C26.0137 58.5322 26.2667 58.6056 26.4819 58.7473C26.6968 58.894 26.8606 59.1041 26.9502 59.3483C27.0628 59.6148 27.1186 59.9019 27.1141 60.1912C27.1166 60.4945 27.0555 60.795 26.9346 61.0732C26.8277 61.3187 26.6514 61.5275 26.4273 61.6741C26.2156 61.8108 25.9691 61.8839 25.7171 61.8849C25.5484 61.888 25.3818 61.8477 25.2332 61.7678C25.0946 61.6978 24.9723 61.5994 24.8741 61.479V63.04L24.2966 63.0712ZM24.7883 60.2615C24.7634 60.5856 24.8517 60.9083 25.038 61.1746C25.1099 61.2656 25.2011 61.3394 25.3051 61.3907C25.409 61.442 25.5231 61.4695 25.639 61.4712C25.7595 61.4721 25.8786 61.4451 25.9869 61.3923C26.0953 61.3395 26.1899 61.2623 26.2634 61.1668C26.4615 60.8904 26.558 60.554 26.5366 60.2146C26.5514 59.8941 26.458 59.578 26.2712 59.3171C26.2001 59.2247 26.1093 59.1494 26.0053 59.0967C25.9013 59.044 25.7868 59.0153 25.6702 59.0127C25.5497 59.0148 25.4314 59.0448 25.3244 59.1003C25.2174 59.1558 25.1247 59.2354 25.0537 59.3327C24.8618 59.6029 24.7681 59.9307 24.7883 60.2615Z" fill="#1A1A18"/>
<path d="M27.7307 61.8458V58.6459H28.2146V59.0907C28.3152 58.9356 28.4518 58.8071 28.6127 58.7161C28.7855 58.6155 28.9825 58.5642 29.1824 58.5678C29.3876 58.5617 29.5903 58.6131 29.7678 58.7161C29.9189 58.8131 30.0319 58.9592 30.0878 59.1298C30.1858 58.9521 30.3292 58.8035 30.5033 58.6993C30.6774 58.5951 30.8761 58.539 31.079 58.5366C31.2117 58.529 31.3445 58.5487 31.4693 58.5943C31.5942 58.64 31.7083 58.7106 31.8049 58.8019C31.9862 59.0203 32.0782 59.2991 32.0624 59.5824V61.7834H31.5239V59.8244C31.5327 59.6663 31.5142 59.5079 31.4693 59.3561C31.4373 59.2599 31.3705 59.1792 31.2819 59.1298C31.1839 59.0686 31.0696 59.0386 30.9541 59.0439C30.8507 59.0412 30.7477 59.0592 30.6512 59.0967C30.5547 59.1342 30.4667 59.1906 30.3922 59.2624C30.228 59.4639 30.1496 59.7217 30.1737 59.9805V61.8458H29.6585V59.7619C29.6751 59.5727 29.6284 59.3833 29.5259 59.2234C29.4751 59.1598 29.4092 59.1101 29.3342 59.0787C29.2592 59.0473 29.1775 59.0353 29.0966 59.0439C28.9478 59.042 28.8016 59.0826 28.6751 59.161C28.5414 59.2414 28.4394 59.3654 28.3863 59.5122C28.322 59.7299 28.293 59.9565 28.3005 60.1834V61.8458H27.7307Z" fill="#1A1A18"/>
<path d="M35.0595 60.8156L35.6215 60.878C35.5498 61.188 35.3733 61.4636 35.1219 61.6585C34.8142 61.861 34.4479 61.9556 34.0806 61.9273C33.7133 61.8991 33.3658 61.7496 33.0927 61.5024C32.8008 61.1663 32.6523 60.7292 32.679 60.2849C32.6527 59.8287 32.8006 59.3796 33.0927 59.0283C33.228 58.8717 33.3959 58.7465 33.5846 58.6616C33.7734 58.5766 33.9784 58.534 34.1854 58.5366C34.3807 58.5308 34.5751 58.5668 34.7555 58.6422C34.9358 58.7176 35.098 58.8306 35.2312 58.9737C35.5205 59.317 35.6659 59.7588 35.6371 60.2068V60.3473H33.2488C33.2558 60.6337 33.3604 60.909 33.5454 61.1278C33.6314 61.2189 33.7356 61.291 33.8512 61.3394C33.9668 61.3878 34.0913 61.4114 34.2166 61.4088C34.398 61.4122 34.5758 61.3575 34.7239 61.2527C34.8797 61.1203 34.9958 60.9474 35.0595 60.7532V60.8156ZM33.28 59.9337H35.0673C35.0606 59.7177 34.99 59.5085 34.8644 59.3327C34.7844 59.2316 34.6823 59.1501 34.566 59.0947C34.4496 59.0392 34.3221 59.0111 34.1932 59.0127C34.0765 59.0104 33.9606 59.0313 33.852 59.0742C33.7435 59.1171 33.6446 59.1811 33.561 59.2624C33.3849 59.442 33.2844 59.6822 33.28 59.9337Z" fill="#1A1A18"/>
<path d="M36.3005 61.8458V58.6459H36.7922V59.0985C36.9 58.929 37.0505 58.7907 37.2286 58.6975C37.4066 58.6044 37.606 58.5597 37.8068 58.5678C37.9895 58.5662 38.1704 58.6034 38.3376 58.6771C38.4844 58.7295 38.6121 58.8246 38.7044 58.9502C38.7861 59.071 38.8443 59.206 38.8761 59.3483C38.8879 59.525 38.8879 59.7023 38.8761 59.879V61.8458H38.3376V59.8946C38.3431 59.7284 38.322 59.5625 38.2751 59.4029C38.2312 59.2918 38.1516 59.1985 38.0488 59.1376C37.9314 59.0742 37.7997 59.0419 37.6663 59.0439C37.448 59.0387 37.2359 59.1168 37.0732 59.2624C36.9793 59.3782 36.9107 59.5123 36.8717 59.6561C36.8328 59.7999 36.8243 59.9503 36.8468 60.0976V61.8458H36.3005Z" fill="#1A1A18"/>
<path d="M40.921 61.3541L40.999 61.8381C40.863 61.8673 40.7245 61.883 40.5854 61.8849C40.4264 61.893 40.268 61.8607 40.1249 61.7912C40.0268 61.7351 39.9479 61.6508 39.8985 61.5493C39.8322 61.3318 39.8006 61.1053 39.8049 60.878V59.0673H39.4068V58.6459H39.8049V57.8654L40.3434 57.5376V58.6615H40.8898V59.0829H40.3434V60.9483C40.3306 61.0493 40.3306 61.1516 40.3434 61.2527C40.366 61.2936 40.3981 61.3284 40.4371 61.3541C40.4987 61.3682 40.5627 61.3682 40.6244 61.3541H40.921Z" fill="#1A1A18"/>
<path d="M43.2624 61.8458V57.4283H46.2439V57.9434H43.8478V59.3171H45.9239V59.84H43.8478V61.8458H43.2624Z" fill="#1A1A18"/>
<path d="M49.0302 61.8458V61.3698C48.9232 61.5411 48.7733 61.6816 48.5954 61.7774C48.4174 61.8732 48.2176 61.921 48.0156 61.9161C47.8331 61.9161 47.6525 61.8789 47.4849 61.8068C47.3412 61.7487 47.2149 61.6546 47.118 61.5337C47.0358 61.4141 46.9799 61.2784 46.9541 61.1356C46.9384 60.9669 46.9384 60.797 46.9541 60.6283V58.6459H47.4927V60.4176C47.479 60.6072 47.479 60.7976 47.4927 60.9873C47.5225 61.1219 47.6002 61.2412 47.7112 61.3229C47.831 61.4101 47.9768 61.4541 48.1249 61.4478C48.2845 61.4499 48.4415 61.4066 48.5776 61.3229C48.7175 61.2494 48.8258 61.1273 48.8819 60.9795C48.9539 60.7796 48.9858 60.5674 48.9756 60.3551V58.6459H49.5141V61.8458H49.0302Z" fill="#1A1A18"/>
<path d="M50.3649 61.8458V58.6459H50.8566V59.0985C50.9644 58.929 51.1149 58.7907 51.2929 58.6975C51.471 58.6044 51.6704 58.5597 51.8712 58.5678C52.0538 58.5671 52.2345 58.6043 52.4019 58.6771C52.5471 58.7326 52.674 58.8271 52.7688 58.9502C52.851 59.0698 52.9069 59.2055 52.9327 59.3483C52.9497 59.5248 52.9497 59.7025 52.9327 59.879V61.8458H52.3941V59.8946C52.3996 59.7284 52.3786 59.5625 52.3317 59.4029C52.2878 59.2918 52.2082 59.1985 52.1054 59.1376C51.988 59.0742 51.8563 59.0419 51.7229 59.0439C51.5046 59.0387 51.2925 59.1168 51.1298 59.2624C51.0373 59.3788 50.9701 59.5132 50.9325 59.657C50.8948 59.8008 50.8876 59.9508 50.9112 60.0976V61.8458H50.3649Z" fill="#1A1A18"/>
<path d="M55.8751 61.8458V61.44C55.7824 61.593 55.65 61.718 55.492 61.8018C55.334 61.8856 55.1562 61.9251 54.9776 61.9161C54.7275 61.9182 54.4827 61.8448 54.2751 61.7054C54.0557 61.5591 53.8824 61.3533 53.7756 61.1122C53.6552 60.8396 53.5966 60.5438 53.6039 60.2459C53.6007 59.9498 53.6537 59.6558 53.76 59.3795C53.8531 59.135 54.0194 58.9251 54.2361 58.7785C54.4493 58.6388 54.6992 58.5654 54.9541 58.5678C55.1335 58.5665 55.3104 58.6094 55.4693 58.6927C55.6152 58.7688 55.7409 58.8784 55.8361 59.0127V57.4517H56.3746V61.8693L55.8751 61.8458ZM54.158 60.2849C54.1329 60.6126 54.2241 60.9387 54.4156 61.2058C54.4883 61.3003 54.5817 61.3768 54.6886 61.4296C54.7954 61.4824 54.913 61.51 55.0322 61.5102C55.1475 61.5095 55.2612 61.4832 55.3651 61.4333C55.469 61.3833 55.5605 61.311 55.6332 61.2215C55.8179 60.9632 55.9062 60.6484 55.8829 60.3317C55.9187 59.9748 55.8305 59.6165 55.6332 59.3171C55.5597 59.2216 55.465 59.1444 55.3567 59.0916C55.2484 59.0388 55.1293 59.0118 55.0088 59.0127C54.8915 59.0132 54.7759 59.0402 54.6705 59.0915C54.5651 59.1429 54.4727 59.2173 54.4 59.3093C54.2135 59.5841 54.128 59.9151 54.158 60.2459V60.2849Z" fill="#1A1A18"/>
<path d="M4.87805 55.5473V51.1454H8.05463V51.6605H5.45561V53.0107H7.89073V53.5259H5.45561V55.0244H8.1561V55.5473H4.87805Z" fill="#1A1A18"/>
<path d="M10.9815 55.5473V55.079C10.8729 55.2484 10.7225 55.387 10.5447 55.4813C10.367 55.5756 10.168 55.6226 9.96683 55.6176C9.78685 55.6176 9.6088 55.5804 9.4439 55.5083C9.30123 55.4523 9.17694 55.3577 9.08488 55.2351C8.99679 55.118 8.93792 54.9815 8.91317 54.8371C8.8972 54.6683 8.8972 54.4985 8.91317 54.3298V52.3551H9.45171V54.1268C9.43831 54.3165 9.43831 54.5069 9.45171 54.6966C9.48518 54.8297 9.56208 54.9478 9.67024 55.0322C9.79009 55.1124 9.93194 55.1533 10.0761 55.1493C10.2383 55.1516 10.3978 55.1083 10.5366 55.0244C10.6718 54.9508 10.7768 54.832 10.8332 54.6888C10.9046 54.4887 10.9364 54.2766 10.9268 54.0644V52.3551H11.4654V55.5473H10.9815Z" fill="#1A1A18"/>
<path d="M12.3083 55.5473V52.3551H12.7922V52.839C12.874 52.6682 12.991 52.5165 13.1356 52.3941C13.2362 52.3234 13.3561 52.2853 13.479 52.2849C13.6787 52.2885 13.8734 52.348 14.041 52.4566L13.8537 52.9639C13.7361 52.8842 13.5977 52.8408 13.4556 52.839C13.3399 52.8396 13.2275 52.8779 13.1356 52.9483C13.0407 53.0254 12.9702 53.1285 12.9327 53.2449C12.8754 53.4507 12.8465 53.6634 12.8468 53.8771V55.5473H12.3083Z" fill="#1A1A18"/>
<path d="M14.158 53.9473C14.1392 53.7061 14.1734 53.4637 14.2583 53.2371C14.3433 53.0106 14.4769 52.8054 14.6498 52.6361C14.9297 52.4035 15.285 52.2814 15.6488 52.2927C15.8484 52.2845 16.0475 52.3185 16.2331 52.3924C16.4187 52.4664 16.5866 52.5787 16.7259 52.722C16.875 52.8803 16.9912 53.0667 17.0676 53.2704C17.1439 53.4741 17.179 53.6909 17.1707 53.9083C17.1884 54.2406 17.1269 54.5723 16.9912 54.8761C16.8509 55.113 16.6411 55.301 16.3902 55.4146C16.1506 55.5441 15.8822 55.6112 15.6098 55.6098C15.4101 55.6185 15.2108 55.5847 15.0251 55.5107C14.8395 55.4367 14.6716 55.3242 14.5327 55.1805C14.3853 55.0112 14.2728 54.8143 14.2018 54.6013C14.1308 54.3884 14.1027 54.1634 14.119 53.9395L14.158 53.9473ZM14.7122 53.9473C14.6851 54.2764 14.7795 54.6041 14.9776 54.8683C15.0602 54.9653 15.1632 55.0428 15.2792 55.0954C15.3952 55.148 15.5214 55.1744 15.6488 55.1727C15.7763 55.1755 15.9029 55.1496 16.0191 55.0969C16.1353 55.0443 16.2381 54.9661 16.32 54.8683C16.5192 54.5986 16.6135 54.2658 16.5854 53.9317C16.5995 53.6234 16.5056 53.3198 16.32 53.0732C16.2365 52.9772 16.1333 52.9002 16.0176 52.8475C15.9018 52.7948 15.776 52.7675 15.6488 52.7675C15.5215 52.7675 15.3958 52.7948 15.28 52.8475C15.1642 52.9002 15.0611 52.9772 14.9776 53.0732C14.7896 53.3246 14.6957 53.6339 14.7122 53.9473Z" fill="#1A1A18"/>
<path d="M17.7795 56.7649V52.3551H18.2712V52.7688C18.3729 52.6215 18.5063 52.4989 18.6615 52.4098C18.8239 52.3212 19.0073 52.2781 19.1922 52.2849C19.4476 52.279 19.6985 52.3527 19.9102 52.4956C20.1247 52.6412 20.2906 52.8479 20.3863 53.0888C20.4919 53.3544 20.5449 53.638 20.5424 53.9239C20.549 54.2268 20.4905 54.5276 20.3707 54.8059C20.2655 55.0547 20.0855 55.2647 19.8556 55.4068C19.6472 55.5445 19.4029 55.6178 19.1532 55.6176C18.9845 55.6207 18.8179 55.5804 18.6693 55.5005C18.5343 55.4283 18.415 55.3301 18.318 55.2117V56.7727L17.7795 56.7649ZM18.2634 53.9707C18.239 54.2924 18.3273 54.6124 18.5132 54.8761C18.5859 54.9681 18.6783 55.0425 18.7837 55.0938C18.8891 55.1452 19.0047 55.1721 19.1219 55.1727C19.2411 55.1724 19.3587 55.1448 19.4656 55.092C19.5725 55.0393 19.6658 54.9627 19.7385 54.8683C19.9261 54.5907 20.0141 54.2579 19.9883 53.9239C20.0145 53.5997 19.9261 53.2765 19.7385 53.0107C19.6683 52.9193 19.5786 52.8446 19.4761 52.792C19.3735 52.7394 19.2606 52.7101 19.1454 52.7063C19.0249 52.7085 18.9065 52.7384 18.7995 52.794C18.6925 52.8495 18.5999 52.929 18.5288 53.0263C18.3369 53.3025 18.2434 53.6351 18.2634 53.9707Z" fill="#1A1A18"/>
<path d="M23.4146 54.5171L23.9766 54.5873C23.9088 54.8969 23.7348 55.173 23.4849 55.3678C23.2186 55.5563 22.8978 55.6523 22.5717 55.641C22.3673 55.6502 22.1632 55.6168 21.9724 55.5429C21.7816 55.469 21.6083 55.3562 21.4634 55.2117C21.1756 54.8768 21.03 54.4427 21.0576 54.0019C21.0268 53.5476 21.1753 53.0993 21.4712 52.7532C21.6012 52.6086 21.76 52.4929 21.9375 52.4136C22.1149 52.3343 22.3071 52.2931 22.5015 52.2927C22.697 52.2859 22.8917 52.3214 23.0722 52.3969C23.2527 52.4723 23.4148 52.5859 23.5473 52.7298C23.8376 53.0695 23.9832 53.5093 23.9532 53.9551V54.0956H21.5727C21.5778 54.3823 21.6827 54.6583 21.8693 54.8761C21.9547 54.968 22.0588 55.0406 22.1745 55.089C22.2903 55.1375 22.4151 55.1607 22.5405 55.1571C22.7195 55.1605 22.8948 55.1057 23.04 55.001C23.2002 54.8726 23.3173 54.6983 23.3756 54.5015L23.4146 54.5171ZM23.4146 53.6429C23.3928 53.4345 23.3116 53.2367 23.1805 53.0732C23.1005 52.9726 22.9982 52.892 22.8817 52.8378C22.7652 52.7836 22.6377 52.7573 22.5093 52.761C22.3938 52.7589 22.2791 52.7799 22.1718 52.8228C22.0646 52.8657 21.9671 52.9296 21.8849 53.0107C21.7159 53.1792 21.6157 53.4046 21.6039 53.6429H23.4146Z" fill="#1A1A18"/>
<path d="M26.6927 55.1493C26.5223 55.3013 26.3269 55.4228 26.1151 55.5083C25.9257 55.5804 25.7247 55.6174 25.5219 55.6176C25.2391 55.6296 24.9616 55.538 24.7415 55.36C24.65 55.2776 24.5775 55.1763 24.5289 55.0631C24.4804 54.9499 24.4571 54.8275 24.4605 54.7044C24.4538 54.5518 24.4861 54.4001 24.5544 54.2635C24.6227 54.127 24.7247 54.0101 24.8507 53.9239C24.9673 53.845 25.0967 53.7869 25.2332 53.7522C25.3926 53.7139 25.5542 53.6853 25.7171 53.6663C26.0434 53.6423 26.3657 53.5794 26.6771 53.479C26.6798 53.4322 26.6798 53.3853 26.6771 53.3385C26.6856 53.2551 26.676 53.1708 26.6491 53.0913C26.6222 53.0119 26.5785 52.9391 26.521 52.878C26.3457 52.7414 26.126 52.6747 25.9044 52.6907C25.7081 52.6782 25.5124 52.7244 25.3424 52.8234C25.2037 52.9483 25.1104 53.1158 25.0771 53.2995L24.5463 53.2293C24.5796 53.031 24.6599 52.8437 24.7805 52.6829C24.9079 52.5305 25.0756 52.417 25.2644 52.3551C25.496 52.2792 25.7387 52.2423 25.9824 52.2459C26.2073 52.2387 26.4317 52.2704 26.6458 52.3395C26.7883 52.3891 26.9167 52.4721 27.0205 52.5815C27.109 52.6865 27.1682 52.813 27.1922 52.9483C27.204 53.1146 27.204 53.2815 27.1922 53.4478V54.1659C27.1707 54.4829 27.1707 54.801 27.1922 55.118C27.2163 55.2541 27.261 55.3857 27.3249 55.5083H26.7629C26.7045 55.3826 26.6676 55.2481 26.6537 55.1102L26.6927 55.1493ZM26.6458 53.9473C26.3604 54.0479 26.0646 54.116 25.7639 54.1502C25.6034 54.1645 25.4458 54.2013 25.2956 54.2595C25.2083 54.2919 25.1342 54.3523 25.0849 54.4312C25.0324 54.5067 25.0051 54.5969 25.0068 54.6888C25.0058 54.757 25.02 54.8246 25.0484 54.8867C25.0767 54.9488 25.1185 55.0038 25.1707 55.0478C25.3063 55.1531 25.4754 55.2058 25.6468 55.1961C25.8409 55.2008 26.0326 55.1522 26.201 55.0556C26.3558 54.9699 26.481 54.8393 26.56 54.681C26.6287 54.5102 26.658 54.3261 26.6458 54.1424V53.9473Z" fill="#1A1A18"/>
<path d="M28.0351 55.5473V52.3551H28.519V52.8078C28.6272 52.6391 28.778 52.5019 28.9561 52.4101C29.1343 52.3183 29.3335 52.2751 29.5337 52.2849C29.7156 52.2824 29.8962 52.3169 30.0644 52.3863C30.2059 52.4444 30.3297 52.5386 30.4234 52.6595C30.5051 52.7803 30.5633 52.9153 30.5951 53.0576C30.6068 53.2317 30.6068 53.4064 30.5951 53.5805V55.5473H30.0566V53.6039C30.0665 53.4375 30.0453 53.2708 29.9941 53.1122C29.9534 53.0036 29.8762 52.9125 29.7756 52.8546C29.6608 52.784 29.5278 52.7487 29.3932 52.7532C29.1748 52.7479 28.9627 52.8261 28.8 52.9717C28.7021 53.0856 28.6292 53.2188 28.5862 53.3627C28.5431 53.5065 28.5309 53.6579 28.5502 53.8068V55.5473H28.0351Z" fill="#1A1A18"/>
<path d="M61.2683 0V41.1317H0V0H61.2683ZM60.8234 0.444878H0.444878V40.6868H60.8234V0.444878Z" fill="#1A1A18"/>
<path fill-rule="evenodd" clip-rule="evenodd" d="M31.079 6.15024H32.8351L31.4224 7.2039L31.9688 8.88976L30.5561 7.85951L29.1512 8.88976L29.7054 7.2039L28.2849 6.15024H30.0332L30.5561 4.51122L31.079 6.15024Z" fill="#1A1A18"/>
<path fill-rule="evenodd" clip-rule="evenodd" d="M31.1571 33.2566H32.9054L31.5005 34.318L32.039 36.0039L30.6419 34.9659L29.2293 36.0039L29.7834 34.318L28.3629 33.2566H30.1112L30.6419 31.6176L31.1571 33.2566Z" fill="#1A1A18"/>
<path fill-rule="evenodd" clip-rule="evenodd" d="M37.8693 31.4615H39.6176L38.2049 32.5229L38.759 34.201L37.3463 33.1629L35.9415 34.201L36.4956 32.5229L35.0673 31.4615H36.8234L37.3463 29.8224L37.8693 31.4615Z" fill="#1A1A18"/>
<path fill-rule="evenodd" clip-rule="evenodd" d="M37.8693 7.92976H39.6176L38.2049 8.99122L38.759 10.6693L37.3463 9.63902L35.9415 10.6693L36.4956 8.99122L35.0673 7.92976H36.8234L37.3463 6.29854L37.8693 7.92976Z" fill="#1A1A18"/>
<path fill-rule="evenodd" clip-rule="evenodd" d="M42.8488 12.9093H44.5971L43.1922 13.9707L43.7385 15.6566L42.3337 14.6185L40.921 15.6566L41.4751 13.9707L40.0468 12.9093H41.8029L42.3337 11.278L42.8488 12.9093Z" fill="#1A1A18"/>
<path fill-rule="evenodd" clip-rule="evenodd" d="M42.8488 26.5444H44.5971L43.1922 27.6059L43.7385 29.2839L42.3337 28.2537L40.921 29.2839L41.4751 27.6059L40.0468 26.5444H41.8029L42.3337 24.9054L42.8488 26.5444Z" fill="#1A1A18"/>
<path fill-rule="evenodd" clip-rule="evenodd" d="M44.7141 19.6293H46.4702L45.0576 20.6829L45.6039 22.3688L44.199 21.3307L42.7941 22.3688L43.3483 20.6829L41.9278 19.6293H43.6683L44.199 17.9902L44.7141 19.6293Z" fill="#1A1A18"/>
<path fill-rule="evenodd" clip-rule="evenodd" d="M24.2341 7.95317H25.9902L24.5776 9.01463L25.1239 10.6927L23.719 9.65463L22.3063 10.6927L22.8683 9.01463L21.44 7.95317H23.1883L23.719 6.31415L24.2341 7.95317Z" fill="#1A1A18"/>
<path fill-rule="evenodd" clip-rule="evenodd" d="M19.3873 12.9327H21.1434L19.7307 13.9941L20.2771 15.6722L18.8722 14.6341L17.4673 15.6722L18.0215 13.9941L16.5932 12.9327H18.3415L18.8722 11.2937L19.3873 12.9327Z" fill="#1A1A18"/>
<path fill-rule="evenodd" clip-rule="evenodd" d="M17.5922 19.6449H19.3405L17.9356 20.7063L18.4819 22.3844L17.0771 21.3463L15.6722 22.3844L16.2185 20.7063L14.798 19.6449H16.5463L17.0771 18.0059L17.5922 19.6449Z" fill="#1A1A18"/>
<path fill-rule="evenodd" clip-rule="evenodd" d="M19.3873 26.56H21.1434L19.7307 27.6215L20.2771 29.2995L18.8722 28.2693L17.4673 29.2995L18.0215 27.6215L16.5932 26.56H18.3415L18.8722 24.9288L19.3873 26.56Z" fill="#1A1A18"/>
<path fill-rule="evenodd" clip-rule="evenodd" d="M24.3044 31.4771H26.0605L24.6478 32.5385L25.1941 34.2166L23.7893 33.1785L22.3766 34.2166L22.9385 32.5385L21.5102 31.4771H23.2585L23.7893 29.838L24.3044 31.4771Z" fill="#1A1A18"/>
<path fill-rule="evenodd" clip-rule="evenodd" d="M94.9229 8.32785C99.508 8.74662 103.929 10.2443 107.824 12.6986C107.907 12.7602 107.993 12.8176 108.082 12.8703C105.759 9.58254 102.792 6.80112 99.3615 4.69485C95.9308 2.58857 92.108 1.20138 88.1249 0.617462C84.1419 0.0335445 80.0817 0.265082 76.1909 1.29802C72.3 2.33096 68.6597 4.14376 65.4907 6.62638C69.7179 7.46501 73.583 9.58839 76.558 12.7064C82.0284 9.25944 88.4858 7.71988 94.9229 8.32785Z" fill="#9C9D9D"/>
<path fill-rule="evenodd" clip-rule="evenodd" d="M113.218 27.3561C113.218 27.2625 113.171 26.8566 113.163 26.7708C112.725 21.7703 110.972 16.9747 108.082 12.8703C107.993 12.8176 107.907 12.7603 107.824 12.6986C103.143 9.75071 97.7235 8.18652 92.1912 8.18652C86.659 8.18652 81.2395 9.75071 76.558 12.6986C79.9018 16.1708 81.9493 20.6876 82.3571 25.4908C82.4702 26.737 82.4702 27.9909 82.3571 29.2371C81.8638 34.6279 79.315 39.6222 75.239 43.1844H75.2858C85.4967 37.3692 97.3709 35.1692 108.987 36.9405C107.765 37.9694 106.413 38.8351 104.968 39.5161C107.47 38.7202 109.921 37.7688 112.304 36.6674C113.145 33.6398 113.454 30.4893 113.218 27.3561Z" fill="#1A1A18"/>
<path d="M83.7463 44.8469H83.161V49.2644H83.7463V44.8469Z" fill="#1A1A18"/>
<path d="M84.7063 49.2644V46.0488H85.198V46.5015C85.3059 46.3319 85.4563 46.1937 85.6344 46.1005C85.8125 46.0074 86.0119 45.9626 86.2127 45.9708C86.3953 45.9692 86.5762 46.0064 86.7434 46.0801C86.8902 46.1324 87.018 46.2276 87.1102 46.3532C87.1919 46.474 87.2502 46.609 87.2819 46.7513C87.2935 46.928 87.2935 47.1053 87.2819 47.282V49.2488H86.7434V47.2976C86.7489 47.1314 86.7278 46.9654 86.681 46.8059C86.6351 46.696 86.556 46.6032 86.4546 46.5405C86.3396 46.4784 86.2107 46.4462 86.08 46.4469C85.8591 46.4404 85.6441 46.5186 85.479 46.6654C85.3811 46.7793 85.3082 46.9125 85.2652 47.0564C85.2221 47.2003 85.2099 47.3516 85.2293 47.5005V49.2488L84.7063 49.2644Z" fill="#1A1A18"/>
<path d="M89.0302 49.2644L87.8127 46.0488H88.3824L89.0693 47.961C89.1473 48.1718 89.2097 48.3825 89.28 48.6088C89.3268 48.4371 89.3893 48.2342 89.4751 48.0001L90.1932 46.0488H90.7473L89.5376 49.2488L89.0302 49.2644Z" fill="#1A1A18"/>
<path d="M93.4166 48.2342L93.9785 48.3044C93.9071 48.6125 93.7339 48.8875 93.4868 49.0849C93.2181 49.2746 92.8945 49.3706 92.5658 49.3581C92.3613 49.3683 92.157 49.3353 91.966 49.2614C91.7751 49.1874 91.6018 49.0741 91.4575 48.9288C91.1657 48.5927 91.0172 48.1556 91.0439 47.7113C91.0164 47.2574 91.1645 46.8102 91.4575 46.4625C91.5959 46.3144 91.7642 46.1974 91.9513 46.1194C92.1383 46.0413 92.3398 46.004 92.5424 46.0098C92.7385 46.0045 92.9334 46.0415 93.1138 46.1183C93.2943 46.1951 93.4561 46.3098 93.5883 46.4547C93.8785 46.7944 94.0242 47.2342 93.9941 47.6801V47.8283H91.6058C91.6109 48.1151 91.7158 48.3911 91.9024 48.6088C91.9885 48.6999 92.0927 48.772 92.2083 48.8204C92.3239 48.8688 92.4483 48.8924 92.5736 48.8898C92.7551 48.8932 92.9328 48.8385 93.081 48.7337C93.2387 48.6031 93.3552 48.4296 93.4166 48.2342ZM91.6371 47.3522H93.4244C93.4176 47.1363 93.347 46.9271 93.2215 46.7513C93.1419 46.6586 93.0443 46.5831 92.9345 46.5294C92.8248 46.4757 92.7052 46.445 92.5832 46.4392C92.4612 46.4333 92.3392 46.4525 92.2249 46.4954C92.1105 46.5383 92.0061 46.6041 91.918 46.6888C91.7418 46.8651 91.641 47.103 91.6371 47.3522Z" fill="#1A1A18"/>
<path d="M94.439 48.3044L94.9776 48.2264C94.9982 48.4152 95.087 48.5901 95.2273 48.7181C95.3931 48.8426 95.598 48.9035 95.8049 48.8898C96.0022 48.9051 96.1986 48.8498 96.359 48.7337C96.4144 48.6933 96.4595 48.6405 96.4906 48.5795C96.5218 48.5185 96.5382 48.451 96.5385 48.3825C96.541 48.3247 96.5278 48.2674 96.5003 48.2166C96.4728 48.1657 96.4321 48.1233 96.3824 48.0937C96.2068 48.0071 96.0205 47.9441 95.8283 47.9064C95.5464 47.8417 95.2698 47.7556 95.001 47.6488C94.8579 47.5819 94.7363 47.4765 94.6497 47.3444C94.5723 47.2147 94.5318 47.0663 94.5327 46.9152C94.5302 46.7767 94.5624 46.6399 94.6265 46.5172C94.6906 46.3945 94.7845 46.2898 94.8995 46.2127C94.9946 46.1379 95.1033 46.0823 95.2195 46.0488C95.3708 46.0004 95.5289 45.9766 95.6878 45.9786C95.9136 45.976 96.1381 46.013 96.3512 46.0879C96.5148 46.1447 96.6585 46.2477 96.7649 46.3844C96.8682 46.5326 96.9326 46.7044 96.9522 46.884L96.4215 46.9542C96.4041 46.8036 96.3318 46.6647 96.2185 46.564C96.0741 46.466 95.9009 46.4193 95.7268 46.4313C95.541 46.413 95.3543 46.4569 95.1961 46.5562C95.1466 46.5865 95.1056 46.6289 95.0769 46.6794C95.0482 46.7299 95.0329 46.7869 95.0322 46.8449C95.0318 46.9139 95.0568 46.9805 95.1024 47.0322C95.1563 47.0964 95.2264 47.1449 95.3054 47.1727L95.7893 47.3132C96.0542 47.3806 96.3149 47.464 96.5697 47.563C96.7141 47.6237 96.8385 47.7237 96.9288 47.8518C97.0202 47.9875 97.0666 48.1486 97.0615 48.3122C97.06 48.4954 97.0058 48.6742 96.9054 48.8274C96.7905 48.9915 96.6305 49.1189 96.4449 49.1942C96.2337 49.2875 96.0044 49.3328 95.7736 49.3269C95.4363 49.3503 95.1009 49.2596 94.8215 49.0693C94.6057 48.869 94.4698 48.5973 94.439 48.3044Z" fill="#1A1A18"/>
<path d="M98.9268 48.7805L99.0049 49.2566C98.8715 49.2859 98.7355 49.3016 98.599 49.3035C98.44 49.3126 98.2813 49.2803 98.1385 49.2098C98.037 49.1583 97.9568 49.0726 97.9122 48.9679C97.8517 48.7602 97.8279 48.5437 97.8419 48.3279V46.4859H97.4439V46.0488H97.8419V45.2683L98.3805 44.9483V46.0488H98.9268V46.4703H98.3805V48.3903C98.3661 48.4886 98.3661 48.5885 98.3805 48.6869C98.3882 48.7094 98.4005 48.73 98.4167 48.7474C98.4328 48.7649 98.4524 48.7788 98.4741 48.7883C98.5308 48.8211 98.5964 48.8348 98.6615 48.8274L98.9268 48.7805Z" fill="#1A1A18"/>
<path d="M99.4576 45.4713V44.8469H100.004V45.4713H99.4576ZM99.4576 49.2644V46.0488H100.004V49.2488L99.4576 49.2644Z" fill="#1A1A18"/>
<path d="M100.831 49.2644V46.0488H101.315V46.5015C101.424 46.3313 101.576 46.1927 101.755 46.0996C101.935 46.0065 102.136 45.962 102.338 45.9708C102.52 45.9701 102.701 46.0073 102.868 46.0801C103.012 46.1338 103.137 46.2288 103.227 46.3532C103.315 46.4704 103.374 46.6068 103.399 46.7513C103.416 46.9278 103.416 47.1055 103.399 47.282V49.2488H102.853V47.2976C102.863 47.1313 102.841 46.9645 102.79 46.8059C102.747 46.6965 102.671 46.6036 102.572 46.5405C102.454 46.4771 102.323 46.4449 102.189 46.4469C101.969 46.442 101.754 46.52 101.588 46.6654C101.492 46.7803 101.42 46.9136 101.377 47.0572C101.334 47.2008 101.321 47.3517 101.339 47.5005V49.2488L100.831 49.2644Z" fill="#1A1A18"/>
<path d="M104.164 49.5298L104.687 49.6079C104.691 49.6763 104.71 49.7431 104.743 49.8036C104.775 49.8642 104.82 49.9172 104.874 49.9591C105.037 50.0705 105.231 50.1254 105.428 50.1152C105.633 50.1271 105.835 50.0723 106.006 49.9591C106.144 49.8537 106.243 49.7054 106.287 49.5376C106.307 49.3065 106.307 49.0741 106.287 48.843C106.18 48.9757 106.044 49.0826 105.89 49.1555C105.736 49.2285 105.568 49.2657 105.397 49.2644C105.201 49.2741 105.005 49.2358 104.827 49.1528C104.649 49.0699 104.494 48.9448 104.375 48.7883C104.131 48.4592 104.005 48.0581 104.016 47.6488C104.012 47.3571 104.068 47.0676 104.18 46.7981C104.28 46.5557 104.448 46.3471 104.663 46.1971C104.883 46.0578 105.137 45.9846 105.397 45.9864C105.578 45.9836 105.758 46.0239 105.921 46.104C106.084 46.184 106.225 46.3015 106.334 46.4469V46.0488H106.833V48.8118C106.856 49.172 106.806 49.5332 106.685 49.8732C106.581 50.0851 106.411 50.2576 106.201 50.3649C105.96 50.489 105.692 50.5507 105.42 50.5444C105.091 50.5587 104.766 50.4686 104.492 50.2869C104.373 50.1966 104.28 50.0773 104.222 49.9406C104.163 49.8039 104.14 49.6544 104.156 49.5064L104.164 49.5298ZM104.585 47.6098C104.559 47.9341 104.648 48.2572 104.835 48.523C104.911 48.6167 105.008 48.6915 105.117 48.7416C105.227 48.7917 105.347 48.8157 105.467 48.8118C105.587 48.8145 105.705 48.7899 105.813 48.7399C105.921 48.6898 106.017 48.6156 106.092 48.523C106.282 48.2645 106.371 47.9451 106.341 47.6254C106.364 47.3077 106.273 46.9923 106.084 46.7357C106.01 46.6416 105.915 46.5659 105.806 46.5145C105.698 46.463 105.579 46.4372 105.46 46.4391C105.341 46.4384 105.224 46.4648 105.117 46.5162C105.01 46.5676 104.916 46.6426 104.843 46.7357C104.653 46.9859 104.562 47.2968 104.585 47.6098Z" fill="#1A1A18"/>
<path d="M77.3385 51.7464V51.122H77.8771V51.7464H77.3385ZM77.3385 55.5396V52.3396H77.8771V55.5396H77.3385Z" fill="#1A1A18"/>
<path d="M78.7044 55.5396V52.3396H79.1961V52.7923C79.3039 52.6227 79.4544 52.4844 79.6325 52.3913C79.8105 52.2981 80.0099 52.2534 80.2107 52.2615C80.3934 52.2599 80.5743 52.2971 80.7414 52.3708C80.8866 52.4263 81.0135 52.5208 81.1083 52.644C81.1905 52.7635 81.2464 52.8992 81.2722 53.042C81.2892 53.2185 81.2892 53.3962 81.2722 53.5727V55.5396H80.7336V53.5884C80.7392 53.4222 80.7181 53.2562 80.6712 53.0966C80.6273 52.9855 80.5477 52.8922 80.4449 52.8313C80.3282 52.7652 80.1965 52.7302 80.0624 52.7298C79.8432 52.7275 79.6312 52.8084 79.4693 52.9562C79.3713 53.07 79.2985 53.2032 79.2554 53.3471C79.2124 53.491 79.2001 53.6423 79.2195 53.7913V55.5396H78.7044Z" fill="#1A1A18"/>
<path d="M83.8244 56.7727L83.7697 56.2576C83.8688 56.2861 83.9711 56.3019 84.0741 56.3044C84.1759 56.3098 84.2775 56.2911 84.3707 56.2498C84.4408 56.2071 84.4997 56.1482 84.5424 56.0781C84.6135 55.9491 84.671 55.8131 84.7141 55.6722C84.7141 55.6722 84.7141 55.602 84.761 55.5396L83.5122 52.3396H84.0976L84.761 54.1893C84.8468 54.4235 84.9249 54.6732 84.9951 54.9308C85.0576 54.685 85.1332 54.4427 85.2215 54.2049L85.9005 52.3396H86.4468L85.2293 55.5942C85.1409 55.8414 85.0393 56.0837 84.9249 56.3201C84.847 56.4759 84.7317 56.61 84.5893 56.7103C84.457 56.7959 84.3019 56.8394 84.1444 56.8352C84.0355 56.828 83.928 56.807 83.8244 56.7727Z" fill="#1A1A18"/>
<path d="M86.7356 53.9396C86.7155 53.6971 86.7492 53.4532 86.8342 53.2252C86.9192 52.9972 87.0534 52.7907 87.2273 52.6205C87.5102 52.3861 87.8667 52.259 88.2341 52.2615C88.4355 52.2547 88.636 52.29 88.8228 52.3653C89.0097 52.4406 89.1787 52.5541 89.319 52.6986C89.608 53.0271 89.7565 53.4559 89.7327 53.8927C89.7492 54.2257 89.6849 54.5578 89.5454 54.8605C89.4218 55.1031 89.2215 55.2979 88.9756 55.4147C88.737 55.5468 88.4679 55.6141 88.1951 55.6098C87.9944 55.6177 87.7942 55.5835 87.6074 55.5096C87.4206 55.4357 87.2513 55.3236 87.1102 55.1805C86.8162 54.8364 86.6679 54.3913 86.6966 53.9396H86.7356ZM87.2897 53.9396C87.266 54.2671 87.3632 54.592 87.5629 54.8527C87.6437 54.9524 87.7461 55.0324 87.8624 55.0865C87.9787 55.1406 88.1059 55.1674 88.2341 55.1649C88.3626 55.1686 88.4901 55.1423 88.6066 55.0881C88.7231 55.0339 88.8254 54.9533 88.9054 54.8527C89.1073 54.5842 89.2044 54.2512 89.1785 53.9162C89.1998 53.5937 89.1027 53.2745 88.9054 53.0186C88.8235 52.9208 88.7206 52.8426 88.6044 52.7899C88.4882 52.7373 88.3617 52.7114 88.2341 52.7142C88.1068 52.7125 87.9806 52.7388 87.8645 52.7915C87.7485 52.8441 87.6455 52.9216 87.5629 53.0186C87.362 53.2817 87.2648 53.6095 87.2897 53.9396Z" fill="#1A1A18"/>
<path d="M92.4644 55.5396V55.0635C92.3573 55.2348 92.2074 55.3754 92.0295 55.4712C91.8516 55.567 91.6518 55.6147 91.4497 55.6098C91.2697 55.6106 91.0915 55.5733 90.9268 55.5005C90.7821 55.4443 90.6553 55.3499 90.56 55.2274C90.4752 55.1084 90.4166 54.9727 90.3883 54.8293C90.3766 54.6604 90.3766 54.4909 90.3883 54.322V52.3396H90.9346V54.1113C90.9168 54.3008 90.9168 54.4915 90.9346 54.681C90.9609 54.8171 91.0393 54.9376 91.1532 55.0166C91.27 55.1038 91.4134 55.1479 91.559 55.1415C91.7212 55.1438 91.8807 55.1005 92.0195 55.0166C92.1558 54.9385 92.2627 54.8179 92.3239 54.6732C92.3888 54.4717 92.4179 54.2604 92.4097 54.0488V52.3396H92.9483V55.5396H92.4644Z" fill="#1A1A18"/>
<path d="M93.799 55.5396V52.3396H94.2829V52.8235C94.365 52.6505 94.4819 52.4964 94.6263 52.3708C94.7302 52.3008 94.8523 52.2628 94.9776 52.2615C95.1755 52.2681 95.3675 52.3303 95.5317 52.441L95.3444 52.9405C95.228 52.8655 95.0927 52.8249 94.9541 52.8235C94.8382 52.8228 94.7255 52.8613 94.6341 52.9327C94.5345 53.0054 94.4629 53.1101 94.4312 53.2293C94.3673 53.4339 94.3357 53.6472 94.3376 53.8615V55.5396H93.799Z" fill="#1A1A18"/>
<path d="M97.7015 55.5396V52.761H97.2254V52.3396H97.7015V51.9962C97.6929 51.8355 97.7113 51.6746 97.7561 51.5201C97.8107 51.3785 97.9091 51.2582 98.0371 51.1766C98.205 51.0796 98.3975 51.0335 98.5912 51.044C98.7592 51.0442 98.9267 51.0625 99.0907 51.0986L99.0127 51.5747C98.9063 51.5637 98.7991 51.5637 98.6927 51.5747C98.5668 51.5613 98.4408 51.5977 98.3415 51.6762C98.2593 51.7916 98.2231 51.9335 98.24 52.0742V52.3708H98.8644V52.7923H98.24V55.5708L97.7015 55.5396Z" fill="#1A1A18"/>
<path d="M101.385 55.5396V55.0635C101.278 55.2343 101.128 55.3744 100.95 55.4701C100.772 55.5658 100.573 55.614 100.371 55.6098C100.188 55.6098 100.008 55.5727 99.84 55.5005C99.6953 55.4443 99.5685 55.3499 99.4732 55.2274C99.3909 55.1078 99.335 54.9721 99.3093 54.8293C99.2936 54.6606 99.2936 54.4907 99.3093 54.322V52.3396H99.8478V54.1113C99.8341 54.3009 99.8341 54.4914 99.8478 54.681C99.8776 54.8157 99.9553 54.9349 100.066 55.0166C100.186 55.1038 100.332 55.1478 100.48 55.1415C100.64 55.1428 100.796 55.0995 100.933 55.0166C101.073 54.9431 101.181 54.821 101.237 54.6732C101.306 54.4726 101.335 54.2606 101.323 54.0488V52.3396H101.869V55.5396H101.385Z" fill="#1A1A18"/>
<path d="M103.906 55.0479L103.984 55.5318C103.848 55.561 103.71 55.5767 103.571 55.5786C103.412 55.5867 103.253 55.5544 103.11 55.4849C103.012 55.4289 102.933 55.3445 102.884 55.243C102.831 55.034 102.81 54.8182 102.821 54.603V52.761H102.423V52.3396H102.821V51.5122L103.36 51.1844V52.3083H103.906V52.7298H103.36V54.6342C103.347 54.7353 103.347 54.8375 103.36 54.9386C103.383 54.9795 103.415 55.0143 103.454 55.0401C103.515 55.0541 103.579 55.0541 103.641 55.0401L103.906 55.0479Z" fill="#1A1A18"/>
<path d="M106.529 55.5396V55.0635C106.422 55.2348 106.272 55.3754 106.094 55.4712C105.916 55.567 105.716 55.6147 105.514 55.6098C105.332 55.6098 105.151 55.5727 104.983 55.5005C104.841 55.4445 104.716 55.3499 104.624 55.2274C104.536 55.1102 104.477 54.9738 104.453 54.8293C104.437 54.6606 104.437 54.4907 104.453 54.322V52.3396H104.991V54.1113C104.985 54.302 104.998 54.4929 105.03 54.681C105.042 54.7489 105.067 54.8136 105.105 54.8713C105.143 54.929 105.191 54.9785 105.249 55.0166C105.366 55.1038 105.509 55.1479 105.655 55.1415C105.817 55.1426 105.976 55.0994 106.115 55.0166C106.251 54.9401 106.356 54.8187 106.412 54.6732C106.484 54.4733 106.516 54.2611 106.505 54.0488V52.3396H107.044V55.5396H106.529Z" fill="#1A1A18"/>
<path d="M107.863 55.5396V52.3396H108.347V52.8235C108.429 52.6505 108.546 52.4964 108.691 52.3708C108.795 52.3008 108.917 52.2628 109.042 52.2615C109.24 52.2681 109.432 52.3303 109.596 52.441L109.409 52.9405C109.289 52.8663 109.152 52.8259 109.011 52.8235C108.895 52.8251 108.783 52.8634 108.691 52.9327C108.596 53.0083 108.527 53.1122 108.496 53.2293C108.432 53.4339 108.4 53.6472 108.402 53.8615V55.5396H107.863Z" fill="#1A1A18"/>
<path d="M112.109 54.5093L112.671 54.5718C112.605 54.8818 112.43 55.1583 112.18 55.3522C111.871 55.555 111.504 55.649 111.137 55.6193C110.769 55.5896 110.422 55.4379 110.15 55.1883C109.86 54.8547 109.714 54.4197 109.744 53.9786C109.715 53.522 109.863 53.0717 110.158 52.722C110.295 52.5747 110.462 52.4587 110.648 52.3819C110.834 52.3051 111.034 52.2694 111.235 52.2771C111.431 52.2704 111.625 52.3059 111.806 52.3813C111.986 52.4568 112.148 52.5703 112.281 52.7142C112.57 53.0575 112.716 53.4994 112.687 53.9474V54.0879H110.299C110.308 54.3752 110.415 54.6507 110.603 54.8683C110.687 54.96 110.79 55.0326 110.904 55.0811C111.019 55.1295 111.142 55.1528 111.266 55.1493C111.448 55.1538 111.626 55.099 111.774 54.9932C111.932 54.8632 112.049 54.6895 112.109 54.4937V54.5093ZM110.33 53.6274H112.117C112.11 53.4114 112.04 53.2022 111.914 53.0264C111.835 52.9248 111.733 52.8431 111.616 52.7876C111.5 52.732 111.372 52.7043 111.243 52.7064C111.126 52.7041 111.01 52.7251 110.902 52.7679C110.793 52.8108 110.694 52.8748 110.611 52.9562C110.44 53.1394 110.341 53.3774 110.33 53.6274Z" fill="#1A1A18"/>
<path fill-rule="evenodd" clip-rule="evenodd" d="M112.695 26.6849C108.925 24.1327 105.819 22.5951 99.2625 22.002C94.4524 21.5577 89.6071 22.3111 85.159 24.1951C85.4863 27.6823 84.8821 31.1939 83.408 34.371C81.9339 37.5482 79.6428 40.2772 76.7688 42.279C88.7103 35.4186 99.559 34.4742 108.769 35.9025C109.385 35.9961 111.274 36.3239 112.148 36.5581C112.864 33.3184 113.049 29.9838 112.695 26.6849Z" fill="white"/>
</g>
<defs>
<clipPath id="clip0_249:4229">
<rect width="113.951" height="64" fill="white"/>
</clipPath>
</defs>
</svg>
