<svg width="125" height="48" viewBox="0 0 125 48" fill="none" xmlns="http://www.w3.org/2000/svg">
<path d="M64.8934 18.1965H67.1704V23.5701H73.377V18.1965H75.6339V31.1335H73.377V25.6793H67.1704V31.1335H64.8934V18.1965Z" fill="white"></path>
<path d="M83.6003 31.3552C82.8933 31.3634 82.1918 31.2286 81.5382 30.9589C80.6117 30.5879 79.8189 29.9455 79.2639 29.116C78.709 28.2865 78.4176 27.3086 78.4282 26.3107V26.2704C78.422 25.5917 78.557 24.9192 78.8245 24.2955C79.0846 23.6887 79.4612 23.1387 79.9328 22.6767C80.4226 22.1901 81.0046 21.8063 81.6449 21.5479C82.2851 21.2896 82.9705 21.1618 83.6608 21.1721C84.3721 21.1656 85.0776 21.3003 85.7364 21.5684C86.3458 21.8141 86.9005 22.178 87.3686 22.6392C87.8366 23.1003 88.2088 23.6496 88.4635 24.2552C88.727 24.8776 88.8597 25.5475 88.8531 26.2233C88.856 26.8973 88.7212 27.5648 88.4568 28.1847C87.9307 29.4073 86.9435 30.3728 85.7095 30.8715C85.0465 31.1741 84.3289 31.3386 83.6003 31.3552ZM80.665 17.9547H82.9353V20.1511H80.665V17.9547ZM83.6406 29.4139C84.0438 29.4227 84.4442 29.3451 84.8149 29.1864C85.1857 29.0277 85.5182 28.7915 85.7901 28.4937C86.047 28.2055 86.2454 27.8702 86.3745 27.5063C86.5098 27.1223 86.5779 26.7178 86.576 26.3107V26.2704C86.5774 25.8555 86.5046 25.4438 86.361 25.0546C86.2207 24.6846 86.011 24.3449 85.7431 24.0537C85.4784 23.7684 85.1585 23.5398 84.8027 23.382C84.4254 23.2109 84.0146 23.126 83.6003 23.1335C83.2012 23.1281 82.8054 23.2066 82.4386 23.3639C82.0718 23.5213 81.7421 23.754 81.471 24.047C81.2102 24.3335 81.0092 24.6692 80.8799 25.0344C80.7452 25.4209 80.677 25.8275 80.6784 26.2368C80.6747 26.6524 80.7499 27.065 80.9001 27.4526C81.0436 27.8189 81.253 28.1559 81.5181 28.4467C81.7822 28.7297 82.0994 28.9579 82.4517 29.1184C82.8213 29.3036 83.2273 29.4046 83.6406 29.4139ZM84.3123 17.9547H86.5626V20.1511H84.3123V17.9547Z" fill="white"></path>
<path d="M94.6566 31.3014C94.2753 31.3058 93.8954 31.256 93.5281 31.1537C93.1945 31.0633 92.8849 30.9004 92.6213 30.6767C92.3566 30.4364 92.1558 30.134 92.0369 29.7968C91.8875 29.3651 91.817 28.9101 91.8287 28.4534V23.2947H90.5928V21.3736H91.8287V18.6868H94.0856V21.3736H96.7254V23.2947H94.0991V28.084C94.0836 28.253 94.1037 28.4234 94.1581 28.5842C94.2124 28.745 94.2999 28.8927 94.4148 29.0176C94.662 29.2247 94.9797 29.3282 95.3014 29.3065C95.7826 29.3045 96.2566 29.1895 96.6851 28.9706V30.8044C96.3999 30.9657 96.0951 31.0899 95.7783 31.1738C95.4119 31.2667 95.0346 31.3097 94.6566 31.3014Z" fill="white"></path>
<path d="M103.698 31.3552C103.024 31.3612 102.355 31.2357 101.73 30.9857C101.134 30.7528 100.592 30.4008 100.138 29.9513C99.6804 29.4949 99.3195 28.9512 99.0764 28.3526C98.8123 27.6976 98.6799 26.9968 98.6868 26.2905C98.6789 25.6025 98.7996 24.9191 99.0428 24.2754C99.2609 23.6755 99.5966 23.1251 100.03 22.6566C100.454 22.1975 100.966 21.8275 101.535 21.5684C102.139 21.3002 102.795 21.165 103.456 21.1721C104.151 21.1626 104.839 21.3071 105.471 21.5953C106.037 21.8639 106.535 22.2564 106.929 22.7439C107.326 23.24 107.625 23.8078 107.809 24.4165C108.008 25.0694 108.108 25.7488 108.104 26.4316C108.104 26.5323 108.104 26.6331 108.104 26.7406C108.104 26.848 108.104 26.9555 108.104 27.063H100.924C101.007 27.7664 101.347 28.4144 101.877 28.8833C102.396 29.3244 103.057 29.563 103.738 29.555C104.233 29.5661 104.725 29.4651 105.175 29.2594C105.621 29.0352 106.027 28.7403 106.378 28.3862L107.721 29.555C107.258 30.1092 106.69 30.5659 106.049 30.8984C105.314 31.2387 104.507 31.3954 103.698 31.3552ZM105.914 25.5718C105.882 25.2268 105.803 24.8878 105.679 24.5642C105.564 24.2641 105.393 23.9883 105.175 23.7515C104.966 23.5221 104.712 23.3371 104.43 23.2074C104.121 23.0632 103.783 22.992 103.442 22.9992C103.123 22.991 102.805 23.0502 102.51 23.1728C102.215 23.2955 101.949 23.4789 101.73 23.7112C101.261 24.2254 100.973 24.8788 100.91 25.5718H105.914Z" fill="white"></path>
<path d="M110.831 17.639H113.088V31.1335H110.831V17.639Z" fill="white"></path>
<path d="M119.563 31.3216C118.835 31.3154 118.114 31.1883 117.427 30.9454C116.697 30.6966 116.016 30.324 115.412 29.8438L116.406 28.3258C116.9 28.6996 117.446 29.0005 118.025 29.2191C118.53 29.4179 119.068 29.5226 119.61 29.5281C120.003 29.5527 120.394 29.4515 120.725 29.2393C120.852 29.1564 120.954 29.0424 121.024 28.9083C121.093 28.7742 121.127 28.6245 121.122 28.4736C121.126 28.3854 121.113 28.2973 121.083 28.2144C121.053 28.1314 121.007 28.0551 120.947 27.9899C120.813 27.8428 120.651 27.7241 120.47 27.6406C120.251 27.5379 120.027 27.446 119.799 27.3652C119.537 27.2779 119.261 27.1906 118.979 27.11C118.613 27.0096 118.252 26.8908 117.898 26.754C117.547 26.6284 117.216 26.4519 116.917 26.2301C116.623 26.0057 116.381 25.7219 116.205 25.3971C116.006 25.0356 115.909 24.6272 115.923 24.2149V24.1814C115.919 23.7545 116.011 23.3323 116.191 22.9454C116.371 22.585 116.623 22.265 116.93 22.005C117.262 21.7417 117.64 21.5434 118.045 21.4207C118.479 21.2796 118.933 21.2093 119.389 21.2124C120.023 21.2155 120.653 21.3174 121.256 21.5147C121.866 21.7026 122.445 21.9787 122.976 22.3342L122.089 23.9328C121.638 23.6617 121.161 23.4367 120.665 23.2611C120.233 23.1065 119.78 23.0226 119.322 23.0126C118.965 22.9905 118.61 23.0874 118.314 23.288C118.201 23.3678 118.11 23.4736 118.046 23.5963C117.983 23.7191 117.951 23.8552 117.951 23.9933C117.952 24.163 118.017 24.3262 118.133 24.45C118.278 24.5904 118.443 24.7081 118.623 24.7993C118.852 24.9114 119.088 25.0101 119.328 25.0949L120.148 25.3636C120.513 25.4721 120.871 25.6 121.223 25.7464C121.568 25.8885 121.895 26.0711 122.196 26.2905C122.489 26.5083 122.736 26.7823 122.922 27.0966C123.113 27.439 123.208 27.8264 123.197 28.2183V28.2586C123.206 28.7213 123.112 29.1801 122.922 29.602C122.741 29.9729 122.476 30.2969 122.149 30.5491C121.804 30.8104 121.412 31.0041 120.994 31.1201C120.529 31.2547 120.047 31.3226 119.563 31.3216Z" fill="white"></path>
<path d="M5.72292 48L0 0L57.5046 7.21411L53.602 42.0823L5.72292 48ZM2.11587 2.1293L7.34173 45.9379L51.9228 40.4232L55.4626 8.85307L2.11587 2.1293Z" fill="white"></path>
<path d="M20.5743 9.29639H18.2435V11.6272H20.5743V9.29639Z" fill="white"></path>
<path d="M28.937 9.29639H26.6062V11.6272H28.937V9.29639Z" fill="white"></path>
<path d="M11.728 13.8841V37.817H22.3207V13.8841H11.728ZM20.3459 35.8354H13.7095V15.8657H20.3459V35.8354Z" fill="white"></path>
<path d="M15.8052 9.29639H13.4744V11.6272H15.8052V9.29639Z" fill="white"></path>
<path d="M33.7128 9.29639H31.382V11.6272H33.7128V9.29639Z" fill="white"></path>
<path d="M37.9983 13.8841V37.817L47.7448 29.9379V17.33L37.9983 13.8841ZM45.7632 28.9908L39.9731 33.6927V16.6784L45.7632 18.7271V28.9908Z" fill="white"></path>
<path d="M24.8531 37.817H35.4526V13.8841H24.8531V37.817ZM26.8682 15.8657H33.5046V35.8354H26.8682V15.8657Z" fill="white"></path>
</svg>